<svg width="102" height="53" viewBox="0 0 102 53" fill="none" xmlns="http://www.w3.org/2000/svg">
<path d="M39.3004 24.0536H51.9999C51.5818 19.8466 50.1446 15.927 47.9757 12.5562C43.4551 14.725 40.1627 18.9582 39.3004 24.0536Z" fill="#33A587"/>
<path d="M12.6995 24.0536C11.8372 18.9582 8.54472 14.725 4.02412 12.5562C1.85528 15.927 0.41809 19.8466 0 24.0536H12.6995Z" fill="#33A587"/>
<path d="M34.0223 24.0534C34.8584 17.2856 38.9348 11.5369 44.6313 8.37505C40.4504 4.11575 34.8584 1.29364 28.6132 0.666504V24.0534H34.0223Z" fill="#33A587"/>
<path d="M17.9779 24.0534H23.387V0.666504C17.1418 1.29364 11.5237 4.11575 7.3689 8.37505C13.0654 11.5369 17.1418 17.2856 17.9779 24.0534Z" fill="#33A587"/>
<path d="M34.0223 29.2798H28.6132V52.6667C34.8584 52.0396 40.4765 49.2175 44.6313 44.9582C38.9348 41.7964 34.8584 36.0476 34.0223 29.2798Z" fill="#33A587"/>
<path d="M4.02412 40.7773C8.51859 38.6084 11.8372 34.3491 12.6995 29.2798H0C0.41809 33.4868 1.85528 37.4064 4.02412 40.7773Z" fill="#33A587"/>
<path d="M39.3004 29.2798C40.1627 34.3753 43.4551 38.6084 47.9757 40.7773C50.1446 37.4064 51.5818 33.4868 51.9999 29.2798H39.3004Z" fill="#33A587"/>
<path d="M17.9779 29.2798C17.1418 36.0476 13.0654 41.7964 7.3689 44.9582C11.5498 49.2175 17.1418 52.0396 23.387 52.6667V29.2798H17.9779Z" fill="#33A587"/>
<path d="M57.3359 52.6665H68.2119V18.521H68.4287L92.0596 52.6665H101.526V0.526855H90.6504V34.4194H90.4336L66.875 0.526855H57.3359V52.6665Z" fill="#33A587"/>
</svg>
